<svg version="1.1" id="Layer_1" xmlns="http://www.w3.org/2000/svg" xmlns:xlink="http://www.w3.org/1999/xlink" x="0px" y="0px"
	 width="100%" viewBox="0 0 1571 1013" enable-background="new 0 0 1571 1013" xml:space="preserve">
<path fill="#0D0D0B" opacity="1.000000" stroke="none" 
	d="
M994.000000,1014.000000 
	C662.666687,1014.000000 331.833344,1014.000000 1.000000,1014.000000 
	C1.000000,676.333313 1.000000,338.666656 1.000000,1.000000 
	C524.666687,1.000000 1048.333374,1.000000 1572.000000,1.000000 
	C1572.000000,338.666656 1572.000000,676.333313 1572.000000,1014.000000 
	C1379.500000,1014.000000 1187.000000,1014.000000 994.000000,1014.000000 
M102.124489,410.499969 
	C102.083267,491.485962 102.134644,572.472229 101.864883,653.457520 
	C101.836304,662.036011 100.494530,670.727661 98.733315,679.151733 
	C96.743042,688.671448 91.009727,695.766968 81.246658,698.432129 
	C75.181717,700.087769 68.924156,701.122131 62.698242,702.078491 
	C57.172913,702.927246 51.571972,703.283752 46.158012,703.841675 
	C46.158012,708.804443 46.158012,713.208252 46.158012,717.533936 
	C59.342815,717.062439 72.152100,716.141479 84.954613,716.227600 
	C136.936340,716.577209 188.915970,717.239441 240.896439,717.779236 
	C263.253143,718.011414 285.490540,717.099121 307.406158,711.989502 
	C336.006683,705.321350 361.868439,693.302307 382.814056,672.399353 
	C412.307404,642.966064 422.971375,606.899597 418.029907,566.016418 
	C414.238678,534.649536 399.049286,509.581390 373.898041,490.719116 
	C353.410309,475.354370 329.658997,467.393494 304.933105,462.052155 
	C295.758087,460.070190 286.495148,458.495361 277.272308,456.734833 
	C278.567963,455.255127 279.993408,454.629303 281.453583,454.099030 
	C288.005402,451.719666 294.686066,449.651123 301.106201,446.959900 
	C346.584229,427.896088 376.881226,396.349579 382.355804,345.485931 
	C385.437469,316.854767 378.771088,290.589935 359.404633,268.403931 
	C339.518524,245.622650 313.318512,234.747375 284.479919,228.968750 
	C259.940002,224.051483 235.112045,225.076111 210.285309,225.163574 
	C159.637375,225.341949 108.987534,225.010483 58.338711,224.826050 
	C54.251301,224.811172 50.165657,224.312393 46.074242,224.038162 
	C46.074242,229.007019 46.074242,233.417725 46.074242,236.999817 
	C57.442070,239.016296 68.454369,240.607864 79.291687,242.994125 
	C90.070305,245.367477 96.893898,252.655228 98.829063,263.318146 
	C100.661903,273.417206 101.858673,283.768280 101.955154,294.021545 
	C102.317337,332.511475 102.115166,371.006683 102.124489,410.499969 
M733.482300,240.004395 
	C745.421509,240.982697 757.467896,241.262848 769.278625,243.077499 
	C798.245422,247.528107 818.321533,263.387451 825.948364,292.143402 
	C830.749939,310.247284 833.560486,328.891388 836.959229,347.349304 
	C838.360413,354.958374 838.961487,362.714783 839.906860,370.248596 
	C845.516968,370.248596 850.476013,370.248596 854.824280,370.248596 
	C854.545349,345.709198 853.639771,321.407135 854.170227,297.136444 
	C854.700256,272.887512 856.667358,248.669983 858.010864,224.322311 
	C727.644226,226.796249 596.955505,226.773651 466.140717,224.317184 
	C470.834381,273.107819 472.713715,321.589600 468.935516,370.159058 
	C474.653656,370.159058 479.713165,370.159058 483.754456,370.159058 
	C487.917908,346.571625 491.097534,323.291107 496.268707,300.461670 
	C504.593109,263.711456 525.058838,245.580658 562.598999,242.140442 
	C584.600708,240.124207 606.838501,240.682739 628.970764,240.110001 
	C629.224792,240.103439 629.488098,240.457550 629.950989,240.789551 
	C629.950989,241.794479 629.950989,242.944443 629.950989,244.094406 
	C629.949402,375.073120 629.988159,506.051849 629.862122,637.030457 
	C629.853027,646.493713 629.098816,656.013977 627.899719,665.406677 
	C625.169189,686.794800 615.085266,696.937927 593.767578,700.094421 
	C582.604553,701.747253 571.366394,702.892517 559.982910,704.288940 
	C559.982910,708.573608 559.982910,712.977661 559.982910,716.783813 
	C628.471130,716.783813 696.655884,716.783813 764.826904,716.783813 
	C764.826904,712.768005 764.826904,708.373291 764.826904,704.287292 
	C752.906372,702.834473 741.328796,701.586121 729.800964,699.981079 
	C711.645264,697.453125 701.258301,688.434570 697.986389,670.578552 
	C695.900452,659.194763 694.998718,647.443298 694.980774,635.854492 
	C694.779175,505.542664 694.851562,375.230408 694.860535,244.918274 
	C694.860596,243.334137 694.994873,241.750000 695.073914,240.002380 
	C707.855896,240.002380 720.171692,240.002380 733.482300,240.004395 
M1026.500000,816.848206 
	C1177.569092,816.848206 1328.638184,816.848206 1479.742065,816.848206 
	C1480.102783,792.696228 1488.365356,772.866638 1506.647705,757.692017 
	C1519.279785,747.207092 1533.804810,741.458618 1550.246338,740.919556 
	C1556.647095,740.709717 1556.673828,740.926575 1556.673950,734.619141 
	C1556.677490,567.981750 1556.677490,401.344391 1556.666504,234.707001 
	C1556.666382,232.942368 1556.511963,231.177734 1556.411865,229.033478 
	C1534.510986,230.284988 1516.322998,222.478302 1501.507935,207.734161 
	C1486.678711,192.975952 1479.876099,174.365326 1479.898193,153.347580 
	C1309.474854,153.347580 1139.453491,153.347580 969.230652,153.347580 
	C968.535034,169.477203 964.898071,184.328781 955.455933,197.423370 
	C941.565369,216.687363 923.010803,227.584198 899.218750,228.963943 
	C894.436951,229.241272 892.852112,230.600601 892.856323,235.638885 
	C892.994995,402.276123 892.971802,568.913513 892.972412,735.550903 
	C892.972412,737.302673 892.972412,739.054504 892.972412,740.144104 
	C941.083618,744.011902 965.670837,770.133972 969.832458,816.848145 
	C988.522339,816.848145 1007.011169,816.848145 1026.500000,816.848206 
z"/>
<path fill="#F4EFE7" opacity="1.000000" stroke="none" 
	d="
M102.124489,409.999939 
	C102.115166,371.006683 102.317337,332.511475 101.955154,294.021545 
	C101.858673,283.768280 100.661903,273.417206 98.829063,263.318146 
	C96.893898,252.655228 90.070305,245.367477 79.291687,242.994125 
	C68.454369,240.607864 57.442070,239.016296 46.074242,236.999817 
	C46.074242,233.417725 46.074242,229.007019 46.074242,224.038162 
	C50.165657,224.312393 54.251301,224.811172 58.338711,224.826050 
	C108.987534,225.010483 159.637375,225.341949 210.285309,225.163574 
	C235.112045,225.076111 259.940002,224.051483 284.479919,228.968750 
	C313.318512,234.747375 339.518524,245.622650 359.404633,268.403931 
	C378.771088,290.589935 385.437469,316.854767 382.355804,345.485931 
	C376.881226,396.349579 346.584229,427.896088 301.106201,446.959900 
	C294.686066,449.651123 288.005402,451.719666 281.453583,454.099030 
	C279.993408,454.629303 278.567963,455.255127 277.272308,456.734833 
	C286.495148,458.495361 295.758087,460.070190 304.933105,462.052155 
	C329.658997,467.393494 353.410309,475.354370 373.898041,490.719116 
	C399.049286,509.581390 414.238678,534.649536 418.029907,566.016418 
	C422.971375,606.899597 412.307404,642.966064 382.814056,672.399353 
	C361.868439,693.302307 336.006683,705.321350 307.406158,711.989502 
	C285.490540,717.099121 263.253143,718.011414 240.896439,717.779236 
	C188.915970,717.239441 136.936340,716.577209 84.954613,716.227600 
	C72.152100,716.141479 59.342815,717.062439 46.158012,717.533936 
	C46.158012,713.208252 46.158012,708.804443 46.158012,703.841675 
	C51.571972,703.283752 57.172913,702.927246 62.698242,702.078491 
	C68.924156,701.122131 75.181717,700.087769 81.246658,698.432129 
	C91.009727,695.766968 96.743042,688.671448 98.733315,679.151733 
	C100.494530,670.727661 101.836304,662.036011 101.864883,653.457520 
	C102.134644,572.472229 102.083267,491.485962 102.124489,409.999939 
M167.034027,523.500000 
	C167.034134,562.808105 166.901749,602.116943 167.125305,641.423828 
	C167.182877,651.547607 167.957336,661.711304 169.113754,671.774902 
	C171.044739,688.579041 180.339478,697.771606 197.010788,699.999634 
	C223.584839,703.550964 249.828491,701.834351 275.557404,694.221680 
	C302.255188,686.322388 323.096466,670.908508 336.001923,645.739929 
	C343.305511,631.496216 346.994324,616.204346 348.558655,600.384033 
	C350.569397,580.049133 350.159912,559.799500 344.907013,539.913635 
	C337.565735,512.121887 321.520782,491.388611 294.899841,479.561707 
	C277.313873,471.748779 258.640656,468.562408 239.584976,468.077301 
	C216.779938,467.496735 193.955994,467.656433 171.140106,467.513489 
	C169.874985,467.505554 168.608841,467.661865 167.034027,467.761230 
	C167.034027,486.240509 167.034027,504.370270 167.034027,523.500000 
M296.427917,268.102203 
	C289.192749,258.390961 279.861206,251.487991 268.693939,246.828873 
	C246.524643,237.579605 223.397141,236.489609 200.038834,239.285202 
	C180.169434,241.663239 171.450348,250.882645 168.985504,270.914307 
	C167.830215,280.303223 167.151672,289.810852 167.118118,299.267731 
	C166.939621,349.565186 167.033966,399.863617 167.033859,450.161713 
	C167.033859,451.793518 167.033859,453.425354 167.033859,455.498627 
	C180.912643,455.498627 194.370483,455.829376 207.803955,455.399109 
	C219.583817,455.021820 231.423264,454.411469 243.078857,452.779144 
	C257.577179,450.748779 271.064758,445.466705 282.459991,435.942749 
	C298.065948,422.899597 305.940674,405.233429 310.933960,386.147705 
	C316.775146,363.821167 317.395447,341.050049 314.759827,318.246002 
	C312.697601,300.403503 307.902069,283.361786 296.427917,268.102203 
z"/>
<path fill="#F4EFE7" opacity="1.000000" stroke="none" 
	d="
M732.984924,240.003387 
	C720.171692,240.002380 707.855896,240.002380 695.073914,240.002380 
	C694.994873,241.750000 694.860596,243.334137 694.860535,244.918274 
	C694.851562,375.230408 694.779175,505.542664 694.980774,635.854492 
	C694.998718,647.443298 695.900452,659.194763 697.986389,670.578552 
	C701.258301,688.434570 711.645264,697.453125 729.800964,699.981079 
	C741.328796,701.586121 752.906372,702.834473 764.826904,704.287292 
	C764.826904,708.373291 764.826904,712.768005 764.826904,716.783813 
	C696.655884,716.783813 628.471130,716.783813 559.982910,716.783813 
	C559.982910,712.977661 559.982910,708.573608 559.982910,704.288940 
	C571.366394,702.892517 582.604553,701.747253 593.767578,700.094421 
	C615.085266,696.937927 625.169189,686.794800 627.899719,665.406677 
	C629.098816,656.013977 629.853027,646.493713 629.862122,637.030457 
	C629.988159,506.051849 629.949402,375.073120 629.950989,244.094406 
	C629.950989,242.944443 629.950989,241.794479 629.950989,240.789551 
	C629.488098,240.457550 629.224792,240.103439 628.970764,240.110001 
	C606.838501,240.682739 584.600708,240.124207 562.598999,242.140442 
	C525.058838,245.580658 504.593109,263.711456 496.268707,300.461670 
	C491.097534,323.291107 487.917908,346.571625 483.754456,370.159058 
	C479.713165,370.159058 474.653656,370.159058 468.935516,370.159058 
	C472.713715,321.589600 470.834381,273.107819 466.140717,224.317184 
	C596.955505,226.773651 727.644226,226.796249 858.010864,224.322311 
	C856.667358,248.669983 854.700256,272.887512 854.170227,297.136444 
	C853.639771,321.407135 854.545349,345.709198 854.824280,370.248596 
	C850.476013,370.248596 845.516968,370.248596 839.906860,370.248596 
	C838.961487,362.714783 838.360413,354.958374 836.959229,347.349304 
	C833.560486,328.891388 830.749939,310.247284 825.948364,292.143402 
	C818.321533,263.387451 798.245422,247.528107 769.278625,243.077499 
	C757.467896,241.262848 745.421509,240.982697 732.984924,240.003387 
z"/>
<path fill="#C6A64B" opacity="1.000000" stroke="none" 
	d="
M1026.000000,816.848145 
	C1007.011169,816.848145 988.522339,816.848145 969.832458,816.848145 
	C965.670837,770.133972 941.083618,744.011902 892.972412,740.144104 
	C892.972412,739.054504 892.972412,737.302673 892.972412,735.550903 
	C892.971802,568.913513 892.994995,402.276123 892.856323,235.638885 
	C892.852112,230.600601 894.436951,229.241272 899.218750,228.963943 
	C923.010803,227.584198 941.565369,216.687363 955.455933,197.423370 
	C964.898071,184.328781 968.535034,169.477203 969.230652,153.347580 
	C1139.453491,153.347580 1309.474854,153.347580 1479.898193,153.347580 
	C1479.876099,174.365326 1486.678711,192.975952 1501.507935,207.734161 
	C1516.322998,222.478302 1534.510986,230.284988 1556.411865,229.033478 
	C1556.511963,231.177734 1556.666382,232.942368 1556.666504,234.707001 
	C1556.677490,401.344391 1556.677490,567.981750 1556.673950,734.619141 
	C1556.673828,740.926575 1556.647095,740.709717 1550.246338,740.919556 
	C1533.804810,741.458618 1519.279785,747.207092 1506.647705,757.692017 
	C1488.365356,772.866638 1480.102783,792.696228 1479.742065,816.848206 
	C1328.638184,816.848206 1177.569092,816.848206 1026.000000,816.848145 
M898.513794,235.153763 
	C898.420959,235.439087 898.328125,235.724396 898.126770,236.939789 
	C898.117920,359.163544 898.097046,481.387268 898.106628,603.611023 
	C898.110107,647.403015 898.187134,691.194946 898.163086,735.484253 
	C898.445740,735.601135 898.728333,735.718018 899.896729,735.969238 
	C920.225159,736.784973 937.416504,744.833496 951.691772,759.045959 
	C966.075317,773.366211 972.771729,791.261475 974.294800,811.280640 
	C1141.362671,811.280640 1307.951538,811.280640 1474.158325,811.280640 
	C1480.145142,765.774902 1506.086304,740.831055 1551.137695,734.507874 
	C1551.137695,732.431213 1551.137817,730.286987 1551.137817,728.142761 
	C1551.137939,566.663513 1551.137939,405.184204 1551.137695,243.704941 
	C1551.137695,234.857910 1551.134644,234.875519 1542.509033,233.842834 
	C1541.211182,233.687454 1539.949219,233.252335 1538.661499,232.991501 
	C1511.292480,227.447220 1492.012939,211.665619 1481.193481,186.142014 
	C1477.530640,177.500931 1476.020752,167.947205 1473.350220,158.162659 
	C1472.395752,158.162659 1470.426147,158.162659 1468.456543,158.162659 
	C1305.977417,158.162659 1143.498291,158.162659 981.019104,158.162872 
	C979.852600,158.162872 978.681274,158.234634 977.520569,158.153381 
	C975.027039,157.978821 974.213257,158.940460 973.946472,161.569717 
	C971.786072,182.863327 963.208374,200.777359 946.707642,214.985794 
	C932.842773,226.924637 916.674255,232.610733 898.513794,235.153763 
z"/>
<path fill="#0E0E0C" opacity="1.000000" stroke="none" 
	d="
M167.034027,523.000000 
	C167.034027,504.370270 167.034027,486.240509 167.034027,467.761230 
	C168.608841,467.661865 169.874985,467.505554 171.140106,467.513489 
	C193.955994,467.656433 216.779938,467.496735 239.584976,468.077301 
	C258.640656,468.562408 277.313873,471.748779 294.899841,479.561707 
	C321.520782,491.388611 337.565735,512.121887 344.907013,539.913635 
	C350.159912,559.799500 350.569397,580.049133 348.558655,600.384033 
	C346.994324,616.204346 343.305511,631.496216 336.001923,645.739929 
	C323.096466,670.908508 302.255188,686.322388 275.557404,694.221680 
	C249.828491,701.834351 223.584839,703.550964 197.010788,699.999634 
	C180.339478,697.771606 171.044739,688.579041 169.113754,671.774902 
	C167.957336,661.711304 167.182877,651.547607 167.125305,641.423828 
	C166.901749,602.116943 167.034134,562.808105 167.034027,523.000000 
z"/>
<path fill="#0E0E0C" opacity="1.000000" stroke="none" 
	d="
M296.657532,268.379517 
	C307.902069,283.361786 312.697601,300.403503 314.759827,318.246002 
	C317.395447,341.050049 316.775146,363.821167 310.933960,386.147705 
	C305.940674,405.233429 298.065948,422.899597 282.459991,435.942749 
	C271.064758,445.466705 257.577179,450.748779 243.078857,452.779144 
	C231.423264,454.411469 219.583817,455.021820 207.803955,455.399109 
	C194.370483,455.829376 180.912643,455.498627 167.033859,455.498627 
	C167.033859,453.425354 167.033859,451.793518 167.033859,450.161713 
	C167.033966,399.863617 166.939621,349.565186 167.118118,299.267731 
	C167.151672,289.810852 167.830215,280.303223 168.985504,270.914307 
	C171.450348,250.882645 180.169434,241.663239 200.038834,239.285202 
	C223.397141,236.489609 246.524643,237.579605 268.693939,246.828873 
	C279.861206,251.487991 289.192749,258.390961 296.657532,268.379517 
z"/>
<path fill="#0F0E0C" opacity="1.000000" stroke="none" 
	d="
M898.230652,734.986938 
	C898.187134,691.194946 898.110107,647.403015 898.106628,603.611023 
	C898.097046,481.387268 898.117920,359.163544 898.345398,236.369598 
	C898.758423,235.620071 898.908325,235.409149 899.013794,235.166641 
	C916.674255,232.610733 932.842773,226.924637 946.707642,214.985794 
	C963.208374,200.777359 971.786072,182.863327 973.946472,161.569717 
	C974.213257,158.940460 975.027039,157.978821 977.520569,158.153381 
	C978.681274,158.234634 979.852600,158.162872 981.019104,158.162872 
	C1143.498291,158.162659 1305.977417,158.162659 1468.456543,158.162659 
	C1470.426147,158.162659 1472.395752,158.162659 1473.350220,158.162659 
	C1476.020752,167.947205 1477.530640,177.500931 1481.193481,186.142014 
	C1492.012939,211.665619 1511.292480,227.447220 1538.661499,232.991501 
	C1539.949219,233.252335 1541.211182,233.687454 1542.509033,233.842834 
	C1551.134644,234.875519 1551.137695,234.857910 1551.137695,243.704941 
	C1551.137939,405.184204 1551.137939,566.663513 1551.137817,728.142761 
	C1551.137817,730.286987 1551.137695,732.431213 1551.137695,734.507874 
	C1506.086304,740.831055 1480.145142,765.774902 1474.158325,811.280640 
	C1307.951538,811.280640 1141.362671,811.280640 974.294800,811.280640 
	C972.771729,791.261475 966.075317,773.366211 951.691772,759.045959 
	C937.416504,744.833496 920.225159,736.784973 899.356873,735.732056 
	C898.667419,735.272583 898.471985,735.103271 898.230652,734.986938 
M1084.500000,178.131897 
	C1052.719116,178.131897 1020.938232,178.131897 989.247742,178.131897 
	C985.745544,222.377762 961.899292,245.758575 918.481018,249.369125 
	C918.481018,406.656006 918.481018,563.697571 918.481018,720.900696 
	C938.170227,720.977966 955.078796,727.292908 968.821411,741.098450 
	C982.552795,754.892639 988.468872,771.993225 988.661499,791.332153 
	C1146.326050,791.332153 1303.385498,791.332153 1460.212524,791.332153 
	C1463.695190,747.308777 1487.476929,724.005127 1530.895752,720.296814 
	C1530.895752,563.229187 1530.895752,406.163757 1530.895752,248.741806 
	C1511.275757,248.663269 1494.340454,242.409225 1480.602173,228.544586 
	C1466.915649,214.732025 1460.789429,197.784042 1460.822632,178.131973 
	C1335.376709,178.131973 1210.438354,178.131973 1084.500000,178.131897 
z"/>
<path fill="#2C2716" opacity="1.000000" stroke="none" 
	d="
M898.763794,235.160202 
	C898.908325,235.409149 898.758423,235.620071 898.399658,235.904541 
	C898.328125,235.724396 898.420959,235.439087 898.763794,235.160202 
z"/>
<path fill="#2C2716" opacity="1.000000" stroke="none" 
	d="
M898.196899,735.235596 
	C898.471985,735.103271 898.667419,735.272583 898.914001,735.664917 
	C898.728333,735.718018 898.445740,735.601135 898.196899,735.235596 
z"/>
<path fill="#BFA049" opacity="1.000000" stroke="none" 
	d="
M1085.000000,178.131927 
	C1210.438354,178.131973 1335.376709,178.131973 1460.822632,178.131973 
	C1460.789429,197.784042 1466.915649,214.732025 1480.602173,228.544586 
	C1494.340454,242.409225 1511.275757,248.663269 1530.895752,248.741806 
	C1530.895752,406.163757 1530.895752,563.229187 1530.895752,720.296814 
	C1487.476929,724.005127 1463.695190,747.308777 1460.212524,791.332153 
	C1303.385498,791.332153 1146.326050,791.332153 988.661499,791.332153 
	C988.468872,771.993225 982.552795,754.892639 968.821411,741.098450 
	C955.078796,727.292908 938.170227,720.977966 918.481018,720.900696 
	C918.481018,563.697571 918.481018,406.656006 918.481018,249.369125 
	C961.899292,245.758575 985.745544,222.377762 989.247742,178.131897 
	C1020.938232,178.131897 1052.719116,178.131897 1085.000000,178.131927 
M1526.006470,366.500000 
	C1526.006470,329.074738 1526.006470,291.649445 1526.006470,254.102615 
	C1506.564941,253.196960 1490.465088,246.091202 1477.142822,232.877197 
	C1463.692871,219.536316 1456.793335,203.170166 1455.627686,184.225388 
	C1301.591797,184.225388 1147.904419,184.225388 994.611023,184.225388 
	C988.599854,225.712830 965.324890,249.178909 924.020264,254.675598 
	C924.020264,408.222046 924.020264,561.777527 924.020264,715.124390 
	C965.568176,720.859375 988.821594,744.345825 994.434692,785.736938 
	C1147.936768,785.736938 1301.493530,785.736938 1454.883301,785.736938 
	C1460.496704,743.993286 1484.258179,720.865906 1526.006470,715.008301 
	C1526.006470,599.366821 1526.006470,483.433411 1526.006470,366.500000 
z"/>
<path fill="#0D0D0B" opacity="1.000000" stroke="none" 
	d="
M1526.006470,367.000000 
	C1526.006470,483.433411 1526.006470,599.366821 1526.006470,715.008301 
	C1484.258179,720.865906 1460.496704,743.993286 1454.883301,785.736938 
	C1301.493530,785.736938 1147.936768,785.736938 994.434692,785.736938 
	C988.821594,744.345825 965.568176,720.859375 924.020264,715.124390 
	C924.020264,561.777527 924.020264,408.222046 924.020264,254.675598 
	C965.324890,249.178909 988.599854,225.712830 994.611023,184.225388 
	C1147.904419,184.225388 1301.591797,184.225388 1455.627686,184.225388 
	C1456.793335,203.170166 1463.692871,219.536316 1477.142822,232.877197 
	C1490.465088,246.091202 1506.564941,253.196960 1526.006470,254.102615 
	C1526.006470,291.649445 1526.006470,329.074738 1526.006470,367.000000 
M1193.500000,483.561005 
	C1200.163086,483.662781 1206.829102,483.674622 1213.488892,483.882294 
	C1239.209351,484.684265 1256.729980,497.899017 1267.070190,520.696228 
	C1277.648315,544.018005 1282.370728,569.149109 1288.053101,593.948059 
	C1293.958862,619.721619 1299.436646,645.608215 1306.070190,671.194275 
	C1310.109619,686.774048 1317.083496,701.297302 1329.845703,712.007690 
	C1345.004272,724.729248 1362.826050,727.802979 1382.173706,727.230469 
	C1414.047363,726.287170 1433.343750,707.329956 1449.761841,682.688904 
	C1446.309570,680.171692 1443.130371,677.853577 1440.148193,675.679138 
	C1433.871094,682.233215 1428.316406,688.929504 1421.852173,694.586548 
	C1410.170166,704.809753 1389.208618,706.052856 1379.114990,686.749329 
	C1377.119263,682.932983 1375.187378,678.956482 1374.077515,674.825195 
	C1368.556152,654.275024 1363.375854,633.633484 1357.967773,613.052551 
	C1352.053711,590.546631 1346.901245,567.789856 1339.807495,545.658264 
	C1331.812012,520.713379 1315.772705,501.902802 1290.665039,492.545319 
	C1278.880005,488.153076 1266.478516,485.404724 1254.329834,482.006073 
	C1251.494629,481.212952 1248.551758,480.804657 1246.692749,480.428558 
	C1261.873779,475.686035 1278.180420,472.215576 1293.114380,465.631348 
	C1344.062134,443.168854 1374.727295,405.302887 1377.130493,348.036896 
	C1378.343140,319.141907 1368.791504,293.803497 1348.891602,272.513031 
	C1326.592285,248.655319 1298.298828,236.381058 1267.007202,229.926056 
	C1238.880737,224.123947 1210.397461,224.903290 1181.887695,225.204361 
	C1139.405151,225.653030 1096.915039,225.380737 1054.428101,225.410950 
	C1042.827026,225.419189 1031.225830,225.412201 1019.400024,225.412201 
	C1019.400024,228.916870 1019.400024,233.311371 1019.400024,237.143509 
	C1030.278076,238.930923 1040.835205,240.295837 1051.223633,242.467957 
	C1063.657837,245.067856 1071.108032,253.286407 1072.871094,265.668488 
	C1074.484985,277.004303 1075.623413,288.516724 1075.643311,299.953644 
	C1075.840942,414.100006 1075.806396,528.246887 1075.685913,642.393433 
	C1075.675781,652.029541 1075.150024,661.743958 1073.843872,671.282349 
	C1071.573730,687.860535 1065.866333,697.208313 1047.469727,700.264282 
	C1043.538818,700.917358 1039.616699,701.651489 1035.664917,702.143982 
	C1030.253540,702.818298 1024.817993,703.297424 1019.485046,703.850586 
	C1019.485046,708.735535 1019.485046,713.134094 1019.485046,716.779419 
	C1078.774414,716.779419 1137.667847,716.779419 1196.704468,716.779419 
	C1196.704468,712.833008 1196.704468,708.441040 1196.704468,703.779114 
	C1193.780518,703.501892 1191.121948,703.373535 1188.503662,702.978882 
	C1179.965820,701.692139 1171.369507,700.654297 1162.932739,698.871887 
	C1152.857544,696.743225 1146.611938,689.951599 1144.146118,680.210571 
	C1142.482544,673.638367 1141.174072,666.770386 1141.131836,660.025879 
	C1140.771484,602.372742 1140.733398,544.717529 1140.630005,487.062988 
	C1140.628052,485.976044 1141.002319,484.888489 1141.244995,483.560516 
	C1158.525391,483.560516 1175.512695,483.560516 1193.500000,483.561005 
z"/>
<path fill="#C8A74C" opacity="1.000000" stroke="none" 
	d="
M1193.000000,483.560760 
	C1175.512695,483.560516 1158.525391,483.560516 1141.244995,483.560516 
	C1141.002319,484.888489 1140.628052,485.976044 1140.630005,487.062988 
	C1140.733398,544.717529 1140.771484,602.372742 1141.131836,660.025879 
	C1141.174072,666.770386 1142.482544,673.638367 1144.146118,680.210571 
	C1146.611938,689.951599 1152.857544,696.743225 1162.932739,698.871887 
	C1171.369507,700.654297 1179.965820,701.692139 1188.503662,702.978882 
	C1191.121948,703.373535 1193.780518,703.501892 1196.704468,703.779114 
	C1196.704468,708.441040 1196.704468,712.833008 1196.704468,716.779419 
	C1137.667847,716.779419 1078.774414,716.779419 1019.485046,716.779419 
	C1019.485046,713.134094 1019.485046,708.735535 1019.485046,703.850586 
	C1024.817993,703.297424 1030.253540,702.818298 1035.664917,702.143982 
	C1039.616699,701.651489 1043.538818,700.917358 1047.469727,700.264282 
	C1065.866333,697.208313 1071.573730,687.860535 1073.843872,671.282349 
	C1075.150024,661.743958 1075.675781,652.029541 1075.685913,642.393433 
	C1075.806396,528.246887 1075.840942,414.100006 1075.643311,299.953644 
	C1075.623413,288.516724 1074.484985,277.004303 1072.871094,265.668488 
	C1071.108032,253.286407 1063.657837,245.067856 1051.223633,242.467957 
	C1040.835205,240.295837 1030.278076,238.930923 1019.400024,237.143509 
	C1019.400024,233.311371 1019.400024,228.916870 1019.400024,225.412201 
	C1031.225830,225.412201 1042.827026,225.419189 1054.428101,225.410950 
	C1096.915039,225.380737 1139.405151,225.653030 1181.887695,225.204361 
	C1210.397461,224.903290 1238.880737,224.123947 1267.007202,229.926056 
	C1298.298828,236.381058 1326.592285,248.655319 1348.891602,272.513031 
	C1368.791504,293.803497 1378.343140,319.141907 1377.130493,348.036896 
	C1374.727295,405.302887 1344.062134,443.168854 1293.114380,465.631348 
	C1278.180420,472.215576 1261.873779,475.686035 1246.692749,480.428558 
	C1248.551758,480.804657 1251.494629,481.212952 1254.329834,482.006073 
	C1266.478516,485.404724 1278.880005,488.153076 1290.665039,492.545319 
	C1315.772705,501.902802 1331.812012,520.713379 1339.807495,545.658264 
	C1346.901245,567.789856 1352.053711,590.546631 1357.967773,613.052551 
	C1363.375854,633.633484 1368.556152,654.275024 1374.077515,674.825195 
	C1375.187378,678.956482 1377.119263,682.932983 1379.114990,686.749329 
	C1389.208618,706.052856 1410.170166,704.809753 1421.852173,694.586548 
	C1428.316406,688.929504 1433.871094,682.233215 1440.148193,675.679138 
	C1443.130371,677.853577 1446.309570,680.171692 1449.761841,682.688904 
	C1433.343750,707.329956 1414.047363,726.287170 1382.173706,727.230469 
	C1362.826050,727.802979 1345.004272,724.729248 1329.845703,712.007690 
	C1317.083496,701.297302 1310.109619,686.774048 1306.070190,671.194275 
	C1299.436646,645.608215 1293.958862,619.721619 1288.053101,593.948059 
	C1282.370728,569.149109 1277.648315,544.018005 1267.070190,520.696228 
	C1256.729980,497.899017 1239.209351,484.684265 1213.488892,483.882294 
	C1206.829102,483.674622 1200.163086,483.662781 1193.000000,483.560760 
M1293.994385,420.401947 
	C1312.314209,378.718231 1312.682739,336.348846 1297.281006,294.004547 
	C1289.021362,271.296661 1272.452026,255.720734 1249.637573,247.242126 
	C1224.923950,238.057678 1199.305176,236.208099 1173.395386,239.322128 
	C1154.101562,241.640961 1145.986328,250.011642 1142.687866,269.132721 
	C1141.644897,275.178772 1140.939697,281.366577 1140.918213,287.492462 
	C1140.710571,346.791168 1140.678589,406.090485 1140.621948,465.389679 
	C1140.620850,466.645782 1140.923828,467.902130 1141.120972,469.439270 
	C1151.983521,469.439270 1162.463867,469.482544 1172.943726,469.429779 
	C1191.578857,469.335938 1210.177734,469.568970 1228.678711,466.092285 
	C1257.200317,460.732544 1280.356567,448.125458 1293.994385,420.401947 
z"/>
<path fill="#0D0D0B" opacity="1.000000" stroke="none" 
	d="
M1293.854980,420.748230 
	C1280.356567,448.125458 1257.200317,460.732544 1228.678711,466.092285 
	C1210.177734,469.568970 1191.578857,469.335938 1172.943726,469.429779 
	C1162.463867,469.482544 1151.983521,469.439270 1141.120972,469.439270 
	C1140.923828,467.902130 1140.620850,466.645782 1140.621948,465.389679 
	C1140.678589,406.090485 1140.710571,346.791168 1140.918213,287.492462 
	C1140.939697,281.366577 1141.644897,275.178772 1142.687866,269.132721 
	C1145.986328,250.011642 1154.101562,241.640961 1173.395386,239.322128 
	C1199.305176,236.208099 1224.923950,238.057678 1249.637573,247.242126 
	C1272.452026,255.720734 1289.021362,271.296661 1297.281006,294.004547 
	C1312.682739,336.348846 1312.314209,378.718231 1293.854980,420.748230 
z"/>
</svg>